<?xml version="1.0" encoding="utf-8"?>
<!-- Generator: Adobe Illustrator 25.4.1, SVG Export Plug-In . SVG Version: 6.00 Build 0)  -->
<svg version="1.1" id="Capa_1" xmlns="http://www.w3.org/2000/svg" xmlns:xlink="http://www.w3.org/1999/xlink" x="0px" y="0px"
	 viewBox="0 0 433.37 213.35" style="enable-background:new 0 0 433.37 213.35;" xml:space="preserve">
<style type="text/css">
	.st0{fill:#F4E600;}
	.st1{fill:#010202;}
</style>
<g>
	<path class="st0" d="M25.8,73.09c0-22.57,16.79-38.45,40.56-38.45c12.3,0,22.39,4.59,27.07,12.85l-15.6,12.2
		c-2.75-4.77-6.97-7.52-12.85-7.52c-10.18,0-17.34,8.07-17.34,19.54c0,7.52,5.23,12.57,13.21,12.57c5.05,0,9.91-2.11,14.31-7.43
		l12.75,12.2c-7.8,9.54-17.34,12.75-29.18,12.75C38.83,101.81,25.8,90.16,25.8,73.09z"/>
	<path class="st0" d="M141.51,81.63l10.74,18.72h-22.48l-9.08-16.15h-5.32l-3.21,16.15H90.49l12.85-64.23h28.81
		c16.97,0,26.7,7.8,26.7,21.1C158.85,68.69,152.42,77.5,141.51,81.63z M128.84,52.82h-7.25l-3.03,15.05h8.9
		c5.96,0,9.45-3.12,9.45-8.53C136.92,54.74,133.8,52.82,128.84,52.82z"/>
	<path class="st0" d="M189.68,52.45l-1.47,7.52h27.16l-3.12,15.6H185l-1.65,8.44h32.21l-3.3,16.33h-53.4l12.85-64.23h52.21
		l-3.3,16.33H189.68z"/>
	<path class="st0" d="M267.39,89.15h-24.5l-6.42,11.19h-22.85l40.92-64.23h21.29l15.23,64.23H269.5L267.39,89.15z M264.36,73.55
		l-3.12-16.42l-9.45,16.42H264.36z"/>
	<g>
		<path class="st1" d="M45.62,129.8H26.81l3.39-16.79h59.27l-3.39,16.79H67.28l-9.45,47.44H36.17L45.62,129.8z"/>
		<path class="st1" d="M85.81,155.12c0-2.2,0.28-4.4,0.73-6.79l7.06-35.33h21.65l-6.97,34.96c-0.37,1.74-0.55,3.3-0.55,4.68
			c0,5.78,3.12,8.53,8.63,8.53c6.24,0,9.63-3.58,11.56-13.21l6.97-34.96h21.29l-7.25,36.24c-3.85,19.27-15.51,29.45-35.23,29.45
			C96.27,178.7,85.81,169.53,85.81,155.12z"/>
		<path class="st1" d="M180.29,113.01h21.65l-12.85,64.23h-21.65L180.29,113.01z"/>
		<path class="st1" d="M212.41,113.01h28.99c20.28,0,32.76,10.37,32.76,27.25c0,22.66-16.79,36.98-40.19,36.98h-34.41L212.41,113.01
			z M234.7,160.35c11.47,0,17.62-8.26,17.62-18.81c0-7.43-4.68-11.65-13.4-11.65h-8.26l-6.06,30.46H234.7z"/>
		<path class="st1" d="M306.18,129.34l-1.47,7.52h27.16l-3.12,15.6H301.5l-1.65,8.44h32.21l-3.3,16.33h-53.4l12.85-64.23h52.21
			l-3.3,16.33H306.18z"/>
		<path class="st1" d="M383.9,166.04h-24.5l-6.42,11.19h-22.85l40.92-64.23h21.29l15.23,64.23h-21.56L383.9,166.04z M380.87,150.44
			l-3.12-16.42l-9.45,16.42H380.87z"/>
	</g>
</g>
</svg>
